<?xml version="1.0" encoding="UTF-8"?><svg id="Layer_2" xmlns="http://www.w3.org/2000/svg" width="16" height="16" viewBox="0 0 16 16"><g id="Layer_1-2"><path d="m9.45,9.45l-1.01,1.01v-4.22c0-.25-.2-.45-.45-.45-.24,0-.44.2-.43.45v4.22l-1.01-1.01c-.09-.1-.22-.15-.36-.13-.1.01-.2.06-.27.13-.17.17-.17.45,0,.62l1.76,1.76c.17.17.45.17.62,0l1.76-1.76s.03-.03.05-.05c.16-.18.14-.46-.05-.62-.18-.16-.46-.14-.62.05ZM0,0v16h16V0H0Zm4.48,2.28h7.04c.57,0,1.05.37,1.24.88H3.25c.18-.51.67-.88,1.24-.88Zm10.11,10.12c0,.72-.59,1.32-1.32,1.32H2.72c-.72,0-1.32-.6-1.32-1.32v-7.04c0-.72.6-1.32,1.32-1.32h10.56c.72,0,1.32.6,1.32,1.32v7.04Z" style="fill:#ff8700;"/></g></svg>